<svg width="800" height="332" xmlns="http://www.w3.org/2000/svg">

 <g>
  <title>Layer 1</title>
  <path id="svg_1" d="m387.62843,144.77485c-9.12348,0 -18.24696,-3.46204 -25.21176,-10.42684c-13.88887,-13.88887 -13.88887,-36.53466 0,-50.42353c2.56598,-2.56598 6.72042,-2.56598 9.24567,0c2.52525,2.56598 2.56598,6.72042 0,9.24567c-8.79764,8.79764 -8.79764,23.09381 0,31.89146c4.39882,4.39882 10.18246,6.59823 15.96609,6.59823c5.78364,0 11.56727,-2.19941 15.96609,-6.59823c8.79764,-8.79764 8.79764,-23.09381 0,-31.89146c-2.56598,-2.56598 -2.56598,-6.72042 0,-9.24567c2.56598,-2.56598 6.72042,-2.56598 9.24567,0c13.88887,13.88887 13.88887,36.53466 0,50.42353c-6.9648,6.9648 -16.08828,10.42684 -25.21176,10.42684z" fill="#1a73e8"/>
  <path id="svg_2" d="m459.88305,102.26743l-2.07722,-11.89311c-0.16292,-0.85533 -0.97752,-1.62919 -1.83284,-1.71065l-13.27792,-1.34408c-0.77387,-0.08146 -1.54773,-0.69241 -1.95503,-1.38481c-1.83284,-4.31736 -4.19517,-8.34962 -6.9648,-12.05603c-0.36657,-0.69241 -0.48876,-1.62919 -0.16292,-2.3216l5.4578,-12.17822c0.36657,-0.77387 0.08146,-1.9143 -0.57022,-2.44379l-9.24567,-7.7794c-0.65168,-0.57022 -1.79211,-0.61095 -2.52525,-0.12219l-11.03778,7.49429c-0.65168,0.44803 -1.71065,0.48876 -2.48452,0.16292c-4.07298,-2.03649 -8.39034,-3.62495 -12.95209,-4.68393c-0.73314,-0.24438 -1.46627,-0.93679 -1.66992,-1.66992l-3.62495,-12.8299c-0.24438,-0.8146 -1.14044,-1.507 -1.99576,-1.507l-12.05603,0c-0.85533,0 -1.79211,0.69241 -1.99576,1.507l-3.62495,12.8299c-0.20365,0.77387 -1.01825,1.507 -1.79211,1.71065c-4.52101,1.05898 -8.83837,2.64744 -12.87063,4.72466c-0.73314,0.28511 -1.71065,0.20365 -2.36233,-0.20365l-11.03778,-7.49429c-0.73314,-0.48876 -1.83284,-0.44803 -2.52525,0.12219l-9.24567,7.73867c-0.65168,0.57022 -0.93679,1.66992 -0.57022,2.44379l5.4578,12.17822c0.32584,0.73314 0.20365,1.75138 -0.24438,2.44379c-2.76963,3.70641 -5.13196,7.7794 -6.9648,12.09676c-0.4073,0.65168 -1.18117,1.14044 -1.87357,1.22189l-13.27792,1.34408c-0.85533,0.08146 -1.71065,0.85533 -1.83284,1.71065l-2.11795,11.89311c-0.16292,0.85533 0.36657,1.87357 1.14044,2.24014l12.0153,5.82437c0.73314,0.36657 1.30335,1.26262 1.38481,2.11795c0.28511,4.72466 1.09971,9.24567 2.40306,13.60376c0.12219,0.77387 -0.12219,1.66992 -0.65168,2.19941l-9.36786,9.57151c-0.61095,0.61095 -0.73314,1.75138 -0.32584,2.48452l6.02801,10.46757c0.44803,0.73314 1.46627,1.18117 2.3216,0.97752l12.95209,-3.25839c0.8146,-0.20365 1.9143,0.16292 2.48452,0.77387c3.1362,3.29912 6.63896,6.23166 10.42684,8.71618c0.61095,0.48876 1.05898,1.38481 1.01825,2.15868l-0.97752,13.31865c-0.08146,0.85533 0.57022,1.83284 1.38481,2.11795l11.36362,4.11371c0.8146,0.28511 1.9143,-0.04073 2.40306,-0.73314l7.82013,-10.7934c0.48876,-0.65168 1.507,-1.09971 2.3216,-1.01825c2.19941,0.24438 4.48028,0.4073 6.76115,0.4073c2.3216,0 4.6432,-0.16292 6.88334,-0.4073c0.8146,-0.04073 1.75138,0.36657 2.19941,1.01825l7.82013,10.7934c0.52949,0.69241 1.58846,1.01825 2.40306,0.73314l11.36362,-4.11371c0.8146,-0.28511 1.42554,-1.26262 1.38481,-2.11795l-0.97752,-13.31865c-0.04073,-0.8146 0.44803,-1.75138 1.09971,-2.24014c3.8286,-2.52525 7.33137,-5.4578 10.42684,-8.79764c0.61095,-0.57022 1.58846,-0.85533 2.36233,-0.65168l12.95209,3.25839c0.85533,0.20365 1.87357,-0.24438 2.3216,-0.97752l6.02801,-10.46757c0.44803,-0.73314 0.28511,-1.87357 -0.32584,-2.48452l-9.2864,-9.57151c-0.52949,-0.57022 -0.77387,-1.54773 -0.61095,-2.3216c1.30335,-4.35809 2.11795,-8.91983 2.40306,-13.64449c0.12219,-0.77387 0.69241,-1.58846 1.34408,-1.9143l12.0153,-5.82437c0.77387,-0.36657 1.30335,-1.38481 1.14044,-2.24014zm-72.94712,50.50499c-24.15279,0 -43.74384,-19.59105 -43.74384,-43.74384c0,-24.15279 19.59105,-43.74384 43.74384,-43.74384c24.15279,0 43.74384,19.59105 43.74384,43.74384c-0.04073,24.15279 -19.59105,43.74384 -43.74384,43.74384z" fill="#1a73e8"/>
  <path id="svg_3" d="m386.97963,112.5131c-3.62495,0 -6.5575,-2.93255 -6.5575,-6.5575l0,-25.08958c0,-3.62495 2.93255,-6.5575 6.5575,-6.5575c3.62495,0 6.5575,2.93255 6.5575,6.5575l0,25.08958c-0.04073,3.62495 -2.97328,6.5575 -6.5575,6.5575z" fill="#1a73e8"/>
  <path d="m82.80862,297.39401l-13.88461,0l0,-55.68409l-20.92401,0l0,-13.93315l55.68408,0l0,13.93315l-20.87546,0l0,55.68409zm78.95975,0l-47.72229,0l0,-69.61725l47.72229,0l0,13.93315l-33.78912,0l0,13.93316l22.86591,0l0,13.93315l-22.86591,0l0,13.88461l33.78912,0l0,13.93316zm7.88607,-48.74178c0,-2.88049 0.55021,-5.58298 1.65062,-8.10745c1.10041,-2.52447 2.5973,-4.73339 4.49065,-6.62674c1.89336,-1.89336 4.10227,-3.39024 6.62675,-4.49065c2.52447,-1.10041 5.22695,-1.65062 8.10744,-1.65062l31.94432,0l0,13.93315l-31.94432,0c-0.97095,0 -1.87717,0.17801 -2.71867,0.53403c-0.84149,0.35602 -1.57779,0.84958 -2.20891,1.4807c-0.63111,0.63111 -1.12469,1.36742 -1.4807,2.20891c-0.35602,0.84149 -0.53402,1.74771 -0.53402,2.71867c0,0.97095 0.178,1.88526 0.53402,2.74294c0.35602,0.85767 0.84959,1.60207 1.4807,2.23319c0.63112,0.63111 1.36742,1.12468 2.20891,1.48069c0.84149,0.35602 1.74771,0.53403 2.71867,0.53403l13.93316,0c2.88049,0 5.59107,0.54212 8.13172,1.62634c2.54066,1.08423 4.75766,2.57303 6.65103,4.46638c1.89335,1.89336 3.38214,4.11036 4.46638,6.65103c1.08422,2.54065 1.62634,5.25123 1.62634,8.13172c0,2.88049 -0.54212,5.58297 -1.62634,8.10744c-1.08423,2.52447 -2.57303,4.7334 -4.46638,6.62675c-1.89336,1.89336 -4.11036,3.39024 -6.65103,4.49065c-2.54065,1.10041 -5.25123,1.65062 -8.13172,1.65062l-30.92482,0l0,-13.93316l30.92482,0c0.97095,0 1.87717,-0.178 2.71867,-0.53402c0.84149,-0.35602 1.5778,-0.84958 2.20891,-1.4807c0.63112,-0.63111 1.12469,-1.36742 1.4807,-2.20891c0.35602,-0.84149 0.53402,-1.74771 0.53402,-2.71867c0,-0.97095 -0.178,-1.87717 -0.53402,-2.71867c-0.35602,-0.84149 -0.84958,-1.5778 -1.4807,-2.20891c-0.63111,-0.63112 -1.36742,-1.12469 -2.20891,-1.4807c-0.84149,-0.35602 -1.74771,-0.53403 -2.71867,-0.53403l-13.93316,0c-2.88049,0 -5.58297,-0.55021 -8.10744,-1.65062c-2.52447,-1.10041 -4.73339,-2.59729 -6.62675,-4.49064c-1.89335,-1.89336 -3.39024,-4.11036 -4.49065,-6.65103c-1.10041,-2.54065 -1.65062,-5.25123 -1.65062,-8.13172zm96.0485,48.74178l-13.88461,0l0,-55.68409l-20.92402,0l0,-13.93315l55.68409,0l0,13.93315l-20.87546,0l0,55.68409zm45.17062,0l-13.93315,0l0,-69.61725l13.93315,0l0,69.61725zm71.58052,0l-14.90412,0l-26.84681,-45.82893l0,45.82893l-13.93316,0l0,-69.61725l14.90412,0l26.84681,45.87747l0,-45.87747l13.93316,0l0,69.61725zm71.28922,-7.03941c-3.23651,2.75103 -6.84521,4.86286 -10.82611,6.33546c-3.9809,1.47262 -8.12363,2.20891 -12.42818,2.20891c-3.30124,0 -6.4811,-0.42883 -9.5396,-1.2865c-3.05849,-0.85768 -5.91472,-2.07136 -8.56865,-3.64107c-2.65394,-1.5697 -5.08131,-3.44687 -7.28214,-5.63152c-2.20082,-2.18464 -4.078,-4.61202 -5.63152,-7.28214c-1.55352,-2.67011 -2.75912,-5.54251 -3.61679,-8.61719c-0.85768,-3.07468 -1.28651,-6.26264 -1.28651,-9.56388c0,-3.30124 0.42883,-6.47301 1.28651,-9.51533c0.85767,-3.04232 2.06326,-5.89853 3.61679,-8.56864c1.55352,-2.67012 3.4307,-5.0975 5.63152,-7.28214c2.20082,-2.18465 4.6282,-4.05373 7.28214,-5.60725c2.65394,-1.55352 5.51016,-2.75912 8.56865,-3.61679c3.0585,-0.85768 6.23837,-1.28651 9.5396,-1.28651c4.30455,0 8.44728,0.73631 12.42818,2.20891c3.9809,1.47262 7.5896,3.58443 10.82611,6.33546l-7.28214,12.1369c-2.10373,-2.13609 -4.53111,-3.81099 -7.28214,-5.02467c-2.75103,-1.21369 -5.6477,-1.82054 -8.69001,-1.82054c-3.04232,0 -5.89853,0.58257 -8.56865,1.74771c-2.67011,1.16514 -5.0085,2.74294 -7.01513,4.7334c-2.00663,1.99045 -3.59252,4.32073 -4.75766,6.99085c-1.16514,2.67011 -1.74771,5.52633 -1.74771,8.56864c0,3.07468 0.58257,5.95517 1.74771,8.64147c1.16514,2.6863 2.75103,5.03277 4.75766,7.03941c2.00663,2.00663 4.34502,3.59252 7.01513,4.75766c2.67012,1.16514 5.52634,1.74771 8.56865,1.74771c1.74771,0 3.44687,-0.21038 5.09749,-0.63112c1.65062,-0.42075 3.22033,-1.00332 4.70912,-1.74771l0,-19.80742l13.44768,0l0,27.47794zm93.2541,7.03941l-48.74178,0l0,-69.61725l13.93316,0l0,55.68408l34.80862,0l0,13.93316zm51.19053,-27.81778l0,-13.93315c0,-1.90954 -0.3641,-3.71389 -1.09232,-5.41305c-0.72821,-1.69917 -1.72344,-3.17988 -2.98567,-4.44211c-1.26224,-1.26224 -2.74294,-2.25746 -4.4421,-2.98567c-1.69917,-0.72821 -3.50353,-1.09232 -5.41306,-1.09232c-1.90954,0 -3.71388,0.36411 -5.41305,1.09232c-1.69916,0.72822 -3.17986,1.72344 -4.4421,2.98567c-1.26224,1.26224 -2.25747,2.74294 -2.98567,4.44211c-0.72822,1.69916 -1.09232,3.50352 -1.09232,5.41305l0,13.93315l27.86632,0zm13.93315,27.81778l-13.93315,0l0,-13.93316l-27.86632,0l0,13.93316l-13.88461,0l0,-41.75093c0,-3.85144 0.72821,-7.46824 2.18464,-10.85038c1.45643,-3.38215 3.4388,-6.33546 5.94708,-8.85994c2.5083,-2.52447 5.45352,-4.51493 8.83566,-5.97136c3.38215,-1.45643 6.99894,-2.18464 10.85038,-2.18464c3.85144,0 7.46824,0.72821 10.85039,2.18464c3.38214,1.45643 6.33545,3.44688 8.85993,5.97136c2.52447,2.52447 4.51493,5.47778 5.97136,8.85994c1.45643,3.38214 2.18464,6.99894 2.18464,10.85038l0,41.75093zm70.7552,-20.87546c0,2.88049 -0.55021,5.58297 -1.65062,8.10744c-1.10041,2.52447 -2.59729,4.7334 -4.49064,6.62675c-1.89336,1.89336 -4.10227,3.39024 -6.62675,4.49065c-2.52447,1.10041 -5.22696,1.65062 -8.10745,1.65062l-34.80862,0l0,-69.61725l34.80862,0c2.88049,0 5.58298,0.55021 8.10745,1.65062c2.52447,1.10041 4.73339,2.59729 6.62675,4.49065c1.89335,1.89335 3.39023,4.10226 4.49064,6.62674c1.10041,2.52447 1.65062,5.22696 1.65062,8.10745c0,1.2946 -0.178,2.62157 -0.53402,3.9809c-0.35602,1.35933 -0.85768,2.67011 -1.50498,3.93235c-0.6473,1.26224 -1.42406,2.4112 -2.33028,3.44688c-0.90622,1.03568 -1.90954,1.89335 -3.00995,2.57302c1.13278,0.61494 2.15228,1.44834 3.0585,2.50021c0.90622,1.05186 1.68298,2.20891 2.33028,3.47115c0.6473,1.26224 1.14087,2.58112 1.4807,3.95663c0.33983,1.37552 0.50974,2.71058 0.50974,4.00518zm-41.75093,6.9423l20.87546,0c0.97095,0 1.87717,-0.178 2.71867,-0.53402c0.84149,-0.35602 1.5778,-0.84958 2.20892,-1.4807c0.63111,-0.63111 1.12468,-1.36742 1.48069,-2.20891c0.35602,-0.84149 0.53403,-1.74771 0.53403,-2.71867c0,-0.97095 -0.17801,-1.87717 -0.53403,-2.71867c-0.35602,-0.84149 -0.84958,-1.5778 -1.48069,-2.20891c-0.63112,-0.63112 -1.36743,-1.12469 -2.20892,-1.4807c-0.84149,-0.35602 -1.74771,-0.53403 -2.71867,-0.53403l-20.87546,0l0,13.88461zm0,-27.81777l20.87546,0c0.97095,0 1.87717,-0.17801 2.71867,-0.53403c0.84149,-0.35602 1.5778,-0.84958 2.20892,-1.48069c0.63111,-0.63112 1.12468,-1.37552 1.48069,-2.23319c0.35602,-0.85768 0.53403,-1.77199 0.53403,-2.74294c0,-0.97095 -0.17801,-1.87717 -0.53403,-2.71867c-0.35602,-0.84149 -0.84958,-1.5778 -1.48069,-2.20891c-0.63112,-0.63112 -1.36743,-1.12469 -2.20892,-1.4807c-0.84149,-0.35602 -1.74771,-0.53403 -2.71867,-0.53403l-20.87546,0l0,13.93316zm51.19053,-6.99085c0,-2.88049 0.55021,-5.58298 1.65062,-8.10745c1.10041,-2.52447 2.59729,-4.73339 4.49065,-6.62674c1.89335,-1.89336 4.10226,-3.39024 6.62674,-4.49065c2.52447,-1.10041 5.22696,-1.65062 8.10745,-1.65062l31.94432,0l0,13.93315l-31.94432,0c-0.97095,0 -1.87717,0.17801 -2.71867,0.53403c-0.84149,0.35602 -1.5778,0.84958 -2.20891,1.4807c-0.63112,0.63111 -1.12469,1.36742 -1.4807,2.20891c-0.35602,0.84149 -0.53403,1.74771 -0.53403,2.71867c0,0.97095 0.17801,1.88526 0.53403,2.74294c0.35602,0.85767 0.84958,1.60207 1.4807,2.23319c0.63111,0.63111 1.36742,1.12468 2.20891,1.48069c0.84149,0.35602 1.74771,0.53403 2.71867,0.53403l13.93315,0c2.88049,0 5.59107,0.54212 8.13173,1.62634c2.54065,1.08423 4.75766,2.57303 6.65101,4.46638c1.89336,1.89336 3.38215,4.11036 4.46638,6.65103c1.08423,2.54065 1.62634,5.25123 1.62634,8.13172c0,2.88049 -0.54211,5.58297 -1.62634,8.10744c-1.08422,2.52447 -2.57302,4.7334 -4.46638,6.62675c-1.89335,1.89336 -4.11036,3.39024 -6.65101,4.49065c-2.54066,1.10041 -5.25124,1.65062 -8.13173,1.65062l-30.92481,0l0,-13.93316l30.92481,0c0.97095,0 1.87717,-0.178 2.71867,-0.53402c0.84149,-0.35602 1.5778,-0.84958 2.20892,-1.4807c0.63111,-0.63111 1.12468,-1.36742 1.48069,-2.20891c0.35602,-0.84149 0.53403,-1.74771 0.53403,-2.71867c0,-0.97095 -0.17801,-1.87717 -0.53403,-2.71867c-0.35602,-0.84149 -0.84958,-1.5778 -1.48069,-2.20891c-0.63112,-0.63112 -1.36743,-1.12469 -2.20892,-1.4807c-0.84149,-0.35602 -1.74771,-0.53403 -2.71867,-0.53403l-13.93315,0c-2.88049,0 -5.58298,-0.55021 -8.10745,-1.65062c-2.52447,-1.10041 -4.73339,-2.59729 -6.62674,-4.49064c-1.89336,-1.89336 -3.39024,-4.11036 -4.49065,-6.65103c-1.10041,-2.54065 -1.65062,-5.25123 -1.65062,-8.13172z" fill="#1a73e8" id="text"/>
 </g>
</svg>