<svg width="700" height="115" xmlns="http://www.w3.org/2000/svg">

 <g>
  <title>Layer 1</title>
  <path id="svg_1" d="m58.07963,86.5328c-7.26512,0 -14.53025,-2.75685 -20.07639,-8.303c-11.05985,-11.05985 -11.05985,-29.09293 0,-40.15278c2.04332,-2.04332 5.35154,-2.04332 7.36242,0c2.01088,2.04332 2.04332,5.35154 0,7.36242c-7.00565,7.00565 -7.00565,18.38984 0,25.3955c3.50283,3.50283 8.1084,5.25424 12.71397,5.25424c4.60557,0 9.21114,-1.75141 12.71397,-5.25424c7.00565,-7.00565 7.00565,-18.38984 0,-25.3955c-2.04332,-2.04332 -2.04332,-5.35154 0,-7.36242c2.04332,-2.04332 5.35154,-2.04332 7.36242,0c11.05985,11.05985 11.05985,29.09293 0,40.15278c-5.54614,5.54614 -12.81127,8.303 -20.07639,8.303z" fill="#ffffff"/>
  <path id="svg_2" d="m116.16817,52.76944l-1.65411,-9.47061c-0.12973,-0.68111 -0.77841,-1.29734 -1.45951,-1.36221l-10.57335,-1.07031c-0.61624,-0.06487 -1.23248,-0.55137 -1.55681,-1.10274c-1.45951,-3.43796 -3.34066,-6.64888 -5.54614,-9.60034c-0.2919,-0.55137 -0.3892,-1.29734 -0.12973,-1.84871l4.3461,-9.69764c0.2919,-0.61624 0.06487,-1.52438 -0.45407,-1.94602l-7.36242,-6.19481c-0.51894,-0.45407 -1.42708,-0.4865 -2.01088,-0.0973l-8.7895,5.96778c-0.51894,0.35677 -1.36221,0.3892 -1.97845,0.12973c-3.24336,-1.62168 -6.68132,-2.88659 -10.31388,-3.72986c-0.5838,-0.1946 -1.16761,-0.74597 -1.32978,-1.32978l-2.88659,-10.21658c-0.1946,-0.64867 -0.90814,-1.20004 -1.58925,-1.20004l-9.60034,0c-0.68111,0 -1.42708,0.55137 -1.58925,1.20004l-2.88659,10.21658c-0.16217,0.61624 -0.81084,1.20004 -1.42708,1.36221c-3.60013,0.84327 -7.03809,2.10818 -10.24901,3.7623c-0.5838,0.22704 -1.36221,0.16217 -1.88115,-0.16217l-8.7895,-5.96778c-0.5838,-0.3892 -1.45951,-0.35677 -2.01088,0.0973l-7.36242,6.16238c-0.51894,0.45407 -0.74597,1.32978 -0.45407,1.94602l4.3461,9.69764c0.25947,0.5838 0.16217,1.39464 -0.1946,1.94602c-2.20548,2.95146 -4.08663,6.19481 -5.54614,9.63277c-0.32434,0.51894 -0.94057,0.90814 -1.49194,0.97301l-10.57335,1.07031c-0.68111,0.06487 -1.36221,0.68111 -1.45951,1.36221l-1.68655,9.47061c-0.12973,0.68111 0.2919,1.49194 0.90814,1.78385l9.56791,4.638c0.5838,0.2919 1.03787,1.00544 1.10274,1.68655c0.22704,3.7623 0.87571,7.36242 1.91358,10.83282c0.0973,0.61624 -0.0973,1.32978 -0.51894,1.75141l-7.45972,7.62189c-0.4865,0.4865 -0.5838,1.39464 -0.25947,1.97845l4.80017,8.33543c0.35677,0.5838 1.16761,0.94057 1.84871,0.77841l10.31388,-2.59469c0.64867,-0.16217 1.52438,0.12973 1.97845,0.61624c2.49739,2.62712 5.28667,4.96234 8.303,6.94079c0.4865,0.3892 0.84327,1.10274 0.81084,1.71898l-0.77841,10.60578c-0.06487,0.68111 0.45407,1.45951 1.10274,1.68655l9.04897,3.27579c0.64867,0.22704 1.52438,-0.03243 1.91358,-0.5838l6.22725,-8.5949c0.3892,-0.51894 1.20004,-0.87571 1.84871,-0.81084c1.75141,0.1946 3.56769,0.32434 5.38397,0.32434c1.84871,0 3.69743,-0.12973 5.48128,-0.32434c0.64867,-0.03243 1.39464,0.2919 1.75141,0.81084l6.22725,8.5949c0.42164,0.55137 1.26491,0.81084 1.91358,0.5838l9.04897,-3.27579c0.64867,-0.22704 1.13518,-1.00544 1.10274,-1.68655l-0.77841,-10.60578c-0.03243,-0.64867 0.35677,-1.39464 0.87571,-1.78385c3.04876,-2.01088 5.83805,-4.3461 8.303,-7.00565c0.4865,-0.45407 1.26491,-0.68111 1.88115,-0.51894l10.31388,2.59469c0.68111,0.16217 1.49194,-0.1946 1.84871,-0.77841l4.80017,-8.33543c0.35677,-0.5838 0.22704,-1.49194 -0.25947,-1.97845l-7.39486,-7.62189c-0.42164,-0.45407 -0.61624,-1.23248 -0.4865,-1.84871c1.03787,-3.47039 1.68655,-7.10295 1.91358,-10.86525c0.0973,-0.61624 0.55137,-1.26491 1.07031,-1.52438l9.56791,-4.638c0.61624,-0.2919 1.03787,-1.10274 0.90814,-1.78385zm-58.08855,40.21764c-19.23312,0 -34.83367,-15.60055 -34.83367,-34.83367c0,-19.23312 15.60055,-34.83367 34.83367,-34.83367c19.23312,0 34.83367,15.60055 34.83367,34.83367c-0.03243,19.23312 -15.60055,34.83367 -34.83367,34.83367z" fill="#ffffff"/>
  <path id="svg_3" d="m58.07963,60.13186c-2.88659,0 -5.22181,-2.33522 -5.22181,-5.22181l0,-19.97909c0,-2.88659 2.33522,-5.22181 5.22181,-5.22181c2.88659,0 5.22181,2.33522 5.22181,5.22181l0,19.97909c-0.03243,2.88659 -2.36765,5.22181 -5.22181,5.22181z" fill="#ffffff"/>
  <path d="m170.30129,84.68238l-11.05646,0l0,-44.34181l-16.66201,0l0,-11.09512l44.34182,0l0,11.09512l-16.62335,0l0,44.34181zm62.87645,0l-38.00174,0l0,-55.43693l38.00174,0l0,11.09512l-26.90663,0l0,11.09511l18.20837,0l0,11.09512l-18.20837,0l0,11.05646l26.90663,0l0,11.09511zm6.27976,-38.81358c0,-2.29376 0.43813,-4.44577 1.3144,-6.45604c0.87627,-2.01027 2.06825,-3.76925 3.57595,-5.27695c1.5077,-1.5077 3.26668,-2.69969 5.27695,-3.57595c2.01027,-0.87627 4.16228,-1.3144 6.45605,-1.3144l25.43759,0l0,11.09512l-25.43759,0c-0.77318,0 -1.49481,0.14175 -2.1649,0.42524c-0.67009,0.2835 -1.25642,0.67653 -1.75899,1.1791c-0.50256,0.50256 -0.89559,1.08889 -1.17909,1.75898c-0.2835,0.67009 -0.42525,1.39172 -0.42525,2.1649c0,0.77318 0.14175,1.50125 0.42525,2.18423c0.2835,0.68297 0.67653,1.27574 1.17909,1.77831c0.50257,0.50256 1.0889,0.8956 1.75899,1.1791c0.67009,0.2835 1.39172,0.42524 2.1649,0.42524l11.09511,0c2.29376,0 4.45222,0.43169 6.47537,1.29507c2.02316,0.86339 3.78858,2.04893 5.29628,3.55662c1.50769,1.5077 2.69324,3.27312 3.55662,5.29628c0.86338,2.02315 1.29507,4.18161 1.29507,6.47537c0,2.29376 -0.43169,4.44578 -1.29507,6.45605c-0.86339,2.01027 -2.04893,3.76925 -3.55662,5.27694c-1.5077,1.5077 -3.27312,2.69969 -5.29628,3.57595c-2.02315,0.87627 -4.18161,1.3144 -6.47537,1.3144l-24.62574,0l0,-11.09511l24.62574,0c0.77318,0 1.49481,-0.14175 2.1649,-0.42525c0.67009,-0.2835 1.25642,-0.67653 1.75898,-1.1791c0.50257,-0.50256 0.8956,-1.08889 1.1791,-1.75898c0.2835,-0.67009 0.42525,-1.39172 0.42525,-2.1649c0,-0.77318 -0.14175,-1.49481 -0.42525,-2.1649c-0.2835,-0.67009 -0.67653,-1.25642 -1.1791,-1.75898c-0.50256,-0.50257 -1.08889,-0.8956 -1.75898,-1.1791c-0.67009,-0.2835 -1.39172,-0.42524 -2.1649,-0.42524l-11.09511,0c-2.29376,0 -4.44578,-0.43813 -6.45605,-1.3144c-2.01027,-0.87627 -3.76925,-2.06826 -5.27695,-3.57595c-1.50769,-1.5077 -2.69968,-3.27312 -3.57595,-5.29628c-0.87627,-2.02315 -1.3144,-4.18161 -1.3144,-6.47537zm76.4844,38.81358l-11.05646,0l0,-44.34181l-16.662,0l0,-11.09512l44.34181,0l0,11.09512l-16.62335,0l0,44.34181zm35.96983,0l-11.09512,0l0,-55.43693l11.09512,0l0,55.43693zm57.00029,0l-11.86829,0l-21.3784,-36.49405l0,36.49405l-11.09511,0l0,-55.43693l11.86829,0l21.3784,36.53271l0,-36.53271l11.09511,0l0,55.43693zm56.76835,-5.60554c-2.57726,2.19067 -5.45092,3.87234 -8.62095,5.04499c-3.17003,1.17266 -6.46893,1.75899 -9.89669,1.75899c-2.62881,0 -5.16097,-0.34149 -7.59649,-1.02446c-2.43551,-0.68298 -4.70994,-1.64945 -6.8233,-2.89943c-2.11336,-1.24997 -4.0463,-2.74478 -5.79884,-4.48444c-1.75254,-1.73965 -3.24735,-3.6726 -4.48444,-5.79884c-1.23709,-2.12624 -2.19712,-4.41356 -2.88009,-6.86196c-0.68298,-2.4484 -1.02446,-4.987 -1.02446,-7.61581c0,-2.62881 0.34149,-5.15453 1.02446,-7.57715c0.68297,-2.42263 1.64301,-4.69707 2.88009,-6.82331c1.23709,-2.12625 2.7319,-4.05919 4.48444,-5.79884c1.75254,-1.73966 3.68549,-3.22802 5.79884,-4.46511c2.11336,-1.23709 4.38779,-2.19712 6.8233,-2.88009c2.43552,-0.68298 4.96768,-1.02446 7.59649,-1.02446c3.42776,0 6.72666,0.58633 9.89669,1.75898c3.17003,1.17266 6.04369,2.85432 8.62095,5.04499l-5.79884,9.66474c-1.67522,-1.70099 -3.60817,-3.03473 -5.79884,-4.0012c-2.19067,-0.96648 -4.49733,-1.44971 -6.91996,-1.44971c-2.42263,0 -4.69706,0.46391 -6.82331,1.39172c-2.12624,0.92781 -3.98831,2.18422 -5.58621,3.76925c-1.5979,1.58501 -2.86076,3.44064 -3.78858,5.56689c-0.92781,2.12624 -1.39172,4.40068 -1.39172,6.82331c0,2.4484 0.46391,4.74216 1.39172,6.88129c0.92781,2.13913 2.19067,4.00764 3.78858,5.60554c1.5979,1.5979 3.45997,2.86076 5.58621,3.78858c2.12625,0.92781 4.40068,1.39172 6.82331,1.39172c1.39172,0 2.74479,-0.16752 4.05919,-0.50256c1.3144,-0.33504 2.56437,-0.79895 3.74991,-1.39172l0,-15.77285l10.70853,0l0,21.88096zm74.2592,5.60554l-38.81358,0l0,-55.43693l11.09511,0l0,44.34182l27.71847,0l0,11.09511zm40.76354,-22.15157l0,-11.09512c0,-1.52059 -0.28994,-2.95741 -0.86983,-4.31047c-0.57988,-1.35307 -1.37239,-2.53216 -2.37752,-3.53729c-1.00513,-1.00513 -2.18423,-1.79764 -3.53729,-2.37753c-1.35307,-0.57988 -2.78989,-0.86982 -4.31047,-0.86982c-1.52059,0 -2.95741,0.28994 -4.31048,0.86982c-1.35306,0.57989 -2.53216,1.3724 -3.53729,2.37753c-1.00513,1.00513 -1.79764,2.18422 -2.37752,3.53729c-0.57989,1.35306 -0.86983,2.78989 -0.86983,4.31047l0,11.09512l22.19024,0zm11.09512,22.15157l-11.09512,0l0,-11.09511l-22.19024,0l0,11.09511l-11.05646,0l0,-33.24669c0,-3.06694 0.57989,-5.94704 1.73966,-8.64027c1.15977,-2.69324 2.73834,-5.04499 4.73571,-7.05526c1.99738,-2.01027 4.34269,-3.59528 7.03593,-4.75505c2.69324,-1.15977 5.57334,-1.73966 8.64028,-1.73966c3.06694,0 5.94703,0.57989 8.64027,1.73966c2.69324,1.15977 5.04499,2.74478 7.05526,4.75505c2.01027,2.01027 3.59528,4.36202 4.75505,7.05526c1.15977,2.69324 1.73966,5.57333 1.73966,8.64027l0,33.24669zm56.3431,-16.62335c0,2.29376 -0.43813,4.44578 -1.3144,6.45605c-0.87627,2.01027 -2.06826,3.76925 -3.57595,5.27694c-1.5077,1.5077 -3.26668,2.69969 -5.27695,3.57595c-2.01027,0.87627 -4.16228,1.3144 -6.45604,1.3144l-27.71847,0l0,-55.43693l27.71847,0c2.29376,0 4.44577,0.43813 6.45604,1.3144c2.01027,0.87627 3.76925,2.06825 5.27695,3.57595c1.50769,1.50769 2.69969,3.26668 3.57595,5.27695c0.87627,2.01027 1.3144,4.16228 1.3144,6.45604c0,1.03091 -0.14175,2.08758 -0.42525,3.17003c-0.2835,1.08245 -0.68297,2.12625 -1.19842,3.13138c-0.51545,1.00513 -1.134,1.92006 -1.85563,2.74478c-0.72163,0.82472 -1.52059,1.5077 -2.39685,2.04893c0.90204,0.48968 1.71388,1.15332 2.43551,1.99093c0.72163,0.83761 1.34018,1.75898 1.85563,2.76411c0.51545,1.00513 0.90848,2.05537 1.1791,3.1507c0.27061,1.09534 0.40592,2.15846 0.40592,3.18937zm-33.24669,5.52823l16.62335,0c0.77318,0 1.49481,-0.14175 2.1649,-0.42525c0.67009,-0.2835 1.25641,-0.67653 1.75898,-1.1791c0.50256,-0.50256 0.8956,-1.08889 1.1791,-1.75898c0.2835,-0.67009 0.42524,-1.39172 0.42524,-2.1649c0,-0.77318 -0.14175,-1.49481 -0.42524,-2.1649c-0.2835,-0.67009 -0.67654,-1.25642 -1.1791,-1.75898c-0.50257,-0.50257 -1.08889,-0.8956 -1.75898,-1.1791c-0.67009,-0.2835 -1.39172,-0.42524 -2.1649,-0.42524l-16.62335,0l0,11.05646zm0,-22.15158l16.62335,0c0.77318,0 1.49481,-0.14175 2.1649,-0.42524c0.67009,-0.2835 1.25641,-0.67654 1.75898,-1.1791c0.50256,-0.50257 0.8956,-1.09534 1.1791,-1.77831c0.2835,-0.68298 0.42524,-1.41105 0.42524,-2.18423c0,-0.77318 -0.14175,-1.49481 -0.42524,-2.1649c-0.2835,-0.67009 -0.67654,-1.25642 -1.1791,-1.75898c-0.50257,-0.50257 -1.08889,-0.8956 -1.75898,-1.1791c-0.67009,-0.2835 -1.39172,-0.42524 -2.1649,-0.42524l-16.62335,0l0,11.09511zm40.76354,-5.56689c0,-2.29376 0.43813,-4.44577 1.3144,-6.45604c0.87627,-2.01027 2.06825,-3.76925 3.57595,-5.27695c1.50769,-1.5077 3.26668,-2.69969 5.27695,-3.57595c2.01027,-0.87627 4.16228,-1.3144 6.45604,-1.3144l25.43759,0l0,11.09512l-25.43759,0c-0.77318,0 -1.49481,0.14175 -2.1649,0.42524c-0.67009,0.2835 -1.25642,0.67653 -1.75898,1.1791c-0.50257,0.50256 -0.8956,1.08889 -1.1791,1.75898c-0.2835,0.67009 -0.42524,1.39172 -0.42524,2.1649c0,0.77318 0.14175,1.50125 0.42524,2.18423c0.2835,0.68297 0.67653,1.27574 1.1791,1.77831c0.50256,0.50256 1.08889,0.8956 1.75898,1.1791c0.67009,0.2835 1.39172,0.42524 2.1649,0.42524l11.09512,0c2.29376,0 4.45222,0.43169 6.47537,1.29507c2.02315,0.86339 3.78858,2.04893 5.29627,3.55662c1.5077,1.5077 2.69324,3.27312 3.55662,5.29628c0.86339,2.02315 1.29508,4.18161 1.29508,6.47537c0,2.29376 -0.43169,4.44578 -1.29508,6.45605c-0.86338,2.01027 -2.04892,3.76925 -3.55662,5.27694c-1.50769,1.5077 -3.27312,2.69969 -5.29627,3.57595c-2.02316,0.87627 -4.18161,1.3144 -6.47537,1.3144l-24.62575,0l0,-11.09511l24.62575,0c0.77318,0 1.49481,-0.14175 2.1649,-0.42525c0.67009,-0.2835 1.25641,-0.67653 1.75898,-1.1791c0.50256,-0.50256 0.8956,-1.08889 1.1791,-1.75898c0.2835,-0.67009 0.42524,-1.39172 0.42524,-2.1649c0,-0.77318 -0.14175,-1.49481 -0.42524,-2.1649c-0.2835,-0.67009 -0.67654,-1.25642 -1.1791,-1.75898c-0.50257,-0.50257 -1.08889,-0.8956 -1.75898,-1.1791c-0.67009,-0.2835 -1.39172,-0.42524 -2.1649,-0.42524l-11.09512,0c-2.29376,0 -4.44577,-0.43813 -6.45604,-1.3144c-2.01027,-0.87627 -3.76925,-2.06826 -5.27695,-3.57595c-1.5077,-1.5077 -2.69969,-3.27312 -3.57595,-5.29628c-0.87627,-2.02315 -1.3144,-4.18161 -1.3144,-6.47537z" fill="#ffffff" id="text"/>
 </g>
</svg>